<svg xmlns="http://www.w3.org/2000/svg" version="1.1" xmlns:xlink="http://www.w3.org/1999/xlink" xmlns:svgjs="http://svgjs.dev/svgjs" width="1000" height="1000" viewBox="0 0 1000 1000"><rect width="1000" height="1000" fill="#000000"></rect><g transform="matrix(0.7,0,0,0.7,149.57575884096218,282.1265587044535)"><svg viewBox="0 0 396 247" data-background-color="#ffbe79" preserveAspectRatio="xMidYMid meet" height="623" width="1000" xmlns="http://www.w3.org/2000/svg" xmlns:xlink="http://www.w3.org/1999/xlink"><g id="tight-bounds" transform="matrix(1,0,0,1,0.23999936813197564,-0.09999999999999432)"><svg viewBox="0 0 395.52 247.2" height="247.2" width="395.52"><g><svg></svg></g><g><svg viewBox="0 0 395.52 247.2" height="247.2" width="395.52"><g><g><path xmlns="http://www.w3.org/2000/svg" d="M286.731 237.966c-25.099 6.156-50.79 9.234-77.073 9.234-26.283 0-46.528-3.741-60.734-11.223-14.207-7.435-24.436-19.913-30.687-37.436-2.296-6.386-4.173-13.795-5.632-22.225h101.377c4.387 0.847 9.813 1.27 16.276 1.27l33.025-1.27 22.397 0zM130.668 26.07c14.538-17.38 42.289-26.07 83.252-26.07 17.048 0 37.175 2.368 60.38 7.103l12.431 2.487-2.055 61.294-22.78 0c-10.905-0.847-21.286-1.27-31.14-1.27-6.048 0-11.304 0.423-15.768 1.27l-102.252 0c3.564-19.851 9.541-34.789 17.932-44.814z" fill="#374151" fill-rule="nonzero" stroke="none" stroke-width="1" stroke-linecap="butt" stroke-linejoin="miter" stroke-miterlimit="10" stroke-dasharray="" stroke-dashoffset="0" font-family="none" font-weight="none" font-size="none" text-anchor="none" style="mix-blend-mode: normal" data-fill-palette-color="tertiary"></path></g></g><g transform="matrix(1,0,0,1,0,82.79331159205455)"><svg viewBox="0 0 395.52 81.61337681589089" height="81.61337681589089" width="395.52"><g><svg viewBox="0 0 395.52 81.61337681589089" height="81.61337681589089" width="395.52"><g><svg viewBox="0 0 395.52 81.61337681589089" height="81.61337681589089" width="395.52"><g><svg viewBox="0 0 395.52 81.61337681589089" height="81.61337681589089" width="395.52"><g id="textblocktransform"><svg viewBox="0 0 395.52 81.61337681589089" height="81.61337681589089" width="395.52" id="textblock"><g><svg viewBox="0 0 395.52 81.61337681589089" height="81.61337681589089" width="395.52"><g transform="matrix(1,0,0,1,0,0)"><svg width="395.52" viewBox="0.9000000357627869 -34.150001525878906 168.63999938964844 34.80000305175781" height="81.61337681589089" data-palette-color="#374151"><path d="M25.8-9.45L25.95-0.65Q20.65 0.65 15.1 0.65 9.55 0.65 6.55-0.93 3.55-2.5 2.23-6.2 0.9-9.9 0.9-16.85L0.9-16.85Q0.9-26.8 3.98-30.48 7.05-34.15 15.7-34.15L15.7-34.15Q19.3-34.15 24.2-33.15L24.2-33.15 25.95-32.8 25.65-23.85Q21.55-24.35 18.07-24.35 14.6-24.35 13.6-23.03 12.6-21.7 12.6-17.55 12.6-13.4 13.08-11.8 13.55-10.2 14.6-9.68 15.65-9.15 18-9.15L18-9.15 25.8-9.45ZM27.95-33.5L39.55-33.5 39.55-11.55Q39.55-10.1 40.27-9.5 41-8.9 42.7-8.9 44.4-8.9 45.1-9.5 45.8-10.1 45.8-11.55L45.8-11.55 45.8-33.5 57.4-33.5 57.4-12.2Q57.4-5.1 53.85-2.23 50.3 0.65 42.67 0.65 35.05 0.65 31.5-2.15 27.95-4.95 27.95-12L27.95-12 27.95-33.5ZM66.05-24.05L59.15-24.05 59.15-33.5 84.15-33.5 84.15-24.05 77.65-24.05 77.65 0 66.05 0 66.05-24.05ZM102.49 0L100.59-8.65 97.74-8.65 97.74 0 86.14 0 86.14-33.5 100.24-33.5Q107.99-33.5 111.34-30.93 114.69-28.35 114.69-21.38 114.69-14.4 110.99-11.4L110.99-11.4 114.29 0 102.49 0ZM97.69-17.8L100.54-17.8Q102.99-17.8 102.99-21.08 102.99-24.35 100.24-24.35L100.24-24.35 97.69-24.35 97.69-17.8ZM142.09 0L116.99 0 116.99-33.5 142.09-33.5 142.09-24.25 128.59-24.25 128.59-21.4 139.09-21.4 139.09-12.25 128.59-12.25 128.59-9.25 142.09-9.25 142.09 0ZM169.54 0L144.44 0 144.44-33.5 169.54-33.5 169.54-24.25 156.04-24.25 156.04-21.4 166.54-21.4 166.54-12.25 156.04-12.25 156.04-9.25 169.54-9.25 169.54 0Z" opacity="1" transform="matrix(1,0,0,1,0,0)" fill="#ffffff" class="undefined-text-0" data-fill-palette-color="primary" id="text-0"></path></svg></g></svg></g></svg></g></svg></g></svg></g></svg></g></svg></g></svg></g><defs></defs></svg><rect width="395.52" height="247.2" fill="none" stroke="none" visibility="hidden"></rect></g></svg></g></svg>